<svg xmlns="http://www.w3.org/2000/svg" viewBox="0 0 1584 396" width="1584" height="396"><rect width="1584" height="396" fill="#F2F4F6"/><g fill="none" stroke-width="2.4" stroke-linejoin="round" stroke-linecap="round"><path stroke="#2C5480" d="M203.0 358.0 L220.0 349.2 L213.1 330.8 L246.0 320.5 L243.0 294.7 L282.7 281.2 L286.4 244.5 L314.9 254.5 L321.1 250.4 L308.1 277.2 L281.6 283.2 L275.7 302.5 L283.5 293.4 L272.2 289.1 L286.5 297.4 L301.8 289.1"/><path stroke="#2C5480" d="M203.0 358.0 L221.4 354.1 L225.4 337.7 L245.6 326.0 L246.7 306.5 L282.6 293.5 L285.1 262.2 L267.1 264.1 L268.6 267.9 L259.0 266.1 L264.6 263.1 L253.3 267.8 L243.0 262.1 L227.5 283.2 L216.3 278.8 L222.9 289.8"/><path stroke="#2A6E8C" d="M203.0 358.0 L235.5 346.9 L224.5 315.9 L271.1 302.3 L283.7 256.8 L348.6 237.9 L331.7 172.4 L357.4 176.6 L366.1 194.4 L390.7 192.8 L401.7 201.0 L395.5 193.9 L399.1 193.6 L405.9 203.1 L394.8 212.9 L407.8 219.8"/><path stroke="#26878A" d="M203.0 358.0 L243.8 351.4 L253.6 318.1 L311.8 308.3 L310.0 257.7 L380.3 229.4 L400.4 158.4 L422.8 161.4 L410.5 161.8 L401.4 172.3 L388.7 153.8 L359.9 156.0 L366.9 165.1 L361.7 179.9 L371.9 169.6 L372.2 155.5"/><path stroke="#26878A" d="M203.0 358.0 L240.7 348.0 L249.4 314.0 L310.1 303.8 L303.7 249.7 L361.5 223.3 L383.4 173.0 L378.7 168.6 L391.0 164.8 L434.3 173.2 L435.8 176.1 L427.2 186.5 L397.7 183.0 L397.0 170.7 L401.1 186.4 L400.5 195.0"/><path stroke="#2A6E8C" d="M203.0 358.0 L232.0 354.7 L232.7 330.2 L273.6 321.3 L275.4 290.5 L317.8 276.7 L329.7 230.4 L341.3 240.3 L341.0 253.9 L341.1 256.5 L353.8 247.4 L353.2 279.0 L338.8 275.0 L322.9 306.6 L342.4 319.8 L360.1 320.6"/><path stroke="#26878A" d="M203.0 358.0 L246.8 347.9 L252.9 308.9 L311.4 296.5 L316.1 250.7 L394.4 224.1 L412.7 160.4 L406.1 152.3 L411.3 146.3 L407.3 140.4 L420.9 128.9 L398.1 133.0 L427.8 150.7 L430.7 152.7 L432.4 163.7 L465.0 162.1"/><path stroke="#2A6E8C" d="M203.0 358.0 L238.5 345.0 L237.7 314.5 L299.8 311.2 L308.1 272.3 L386.7 246.4 L399.3 192.0 L393.5 196.7 L356.2 182.9 L330.0 198.1 L331.7 201.4 L314.0 197.2 L299.5 217.5 L324.8 210.3 L307.3 226.0 L302.4 223.9"/><path stroke="#2A6E8C" d="M203.0 358.0 L231.1 349.2 L247.1 325.8 L292.9 321.8 L292.5 290.2 L357.2 281.6 L364.6 232.5 L356.0 239.0 L370.4 241.9 L394.7 235.5 L411.8 242.3 L397.9 237.8 L406.4 235.4 L415.4 235.7 L430.8 228.8 L440.2 235.3"/><path stroke="#2E9A6E" d="M203.0 358.0 L260.4 345.8 L280.2 294.7 L360.0 283.8 L382.6 226.4 L476.8 205.6 L516.5 102.9 L540.2 98.1 L558.2 76.0 L530.4 63.4 L547.0 51.8 L567.8 49.0 L589.5 36.5 L604.9 36.3 L621.5 28.0 L619.8 28.3"/><path stroke="#2A6E8C" d="M203.0 358.0 L238.3 355.8 L249.7 330.9 L307.2 329.0 L319.4 289.6 L397.1 286.1 L414.0 230.3 L426.4 231.4 L426.6 238.4 L441.4 235.0 L459.6 210.1 L488.3 217.7 L491.5 216.4 L500.8 221.2 L511.9 207.2 L492.4 204.5"/><path stroke="#2E9A6E" d="M203.0 358.0 L257.0 347.6 L264.2 299.7 L339.1 299.9 L348.9 238.3 L463.5 220.8 L493.8 129.5 L493.1 118.0 L501.7 113.3 L501.1 129.9 L506.7 141.6 L503.9 152.4 L524.7 146.7 L530.8 141.5 L534.1 132.4 L544.9 127.9"/><path stroke="#26878A" d="M203.0 358.0 L259.8 353.8 L289.2 314.4 L362.6 306.6 L385.5 253.2 L491.7 239.3 L555.7 163.4 L565.7 177.6 L576.6 182.6 L577.8 164.7 L585.7 168.0 L588.8 153.5 L581.1 155.5 L542.5 159.5 L568.4 168.0 L583.1 157.5"/><path stroke="#2E9A6E" d="M203.0 358.0 L259.3 346.4 L284.0 306.0 L367.1 307.1 L385.3 233.8 L480.3 212.2 L529.1 141.7 L523.5 139.3 L542.6 145.1 L534.1 138.7 L550.4 133.9 L572.9 149.0 L578.7 144.0 L585.5 144.1 L586.9 135.3 L606.4 131.0"/><path stroke="#2A6E8C" d="M203.0 358.0 L234.2 357.5 L242.4 333.4 L293.4 332.8 L307.2 293.9 L364.4 292.7 L377.0 238.7 L369.8 233.2 L367.0 234.0 L347.8 250.6 L362.9 254.2 L376.9 245.4 L381.9 244.5 L400.6 243.9 L404.6 259.9 L426.2 255.2"/><path stroke="#26878A" d="M203.0 358.0 L243.1 350.3 L273.9 319.3 L335.8 318.6 L369.9 281.3 L448.1 264.8 L476.1 214.1 L499.9 209.5 L490.6 195.6 L476.1 208.9 L453.4 217.1 L452.2 209.0 L466.4 221.7 L461.6 240.0 L475.5 237.3 L477.7 234.2"/><path stroke="#2A6E8C" d="M203.0 358.0 L238.3 355.9 L265.6 330.6 L314.2 323.2 L337.8 281.1 L402.6 284.4 L448.1 231.6 L444.4 237.7 L409.2 238.8 L415.4 239.0 L393.1 240.7 L414.8 253.4 L421.6 260.5 L460.5 254.3 L461.5 264.4 L466.1 253.1"/><path stroke="#5AA243" d="M203.0 358.0 L277.3 363.1 L305.5 307.4 L397.7 305.4 L450.8 230.9 L588.7 238.4 L686.7 133.3 L699.1 113.6 L699.4 129.4 L683.1 134.5 L690.0 159.1 L690.0 162.0 L652.5 155.1 L626.0 150.2 L607.6 138.5 L620.7 133.5"/><path stroke="#2E9A6E" d="M203.0 358.0 L259.2 354.6 L300.1 318.0 L378.7 314.9 L397.8 257.9 L526.2 249.3 L599.1 174.7 L614.1 166.9 L617.2 171.1 L606.9 175.9 L606.8 191.7 L577.0 196.2 L594.3 194.1 L597.0 182.1 L617.6 197.0 L625.5 204.2"/><path stroke="#5AA243" d="M203.0 358.0 L275.0 368.9 L300.4 303.9 L408.5 314.7 L488.5 245.1 L636.0 235.8 L682.2 135.6 L686.1 131.0 L701.8 124.5 L711.1 125.7 L699.6 120.4 L694.6 110.1 L681.3 92.7 L686.1 104.6 L694.6 99.1 L698.2 109.1"/><path stroke="#5AA243" d="M203.0 358.0 L283.4 357.7 L326.6 301.0 L437.5 298.9 L482.2 211.7 L624.3 212.1 L722.7 105.7 L715.1 93.9 L711.1 103.2 L687.6 100.6 L681.3 95.1 L686.4 112.9 L678.6 91.2 L658.5 93.5 L660.5 76.7 L638.3 81.0"/><path stroke="#5AA243" d="M203.0 358.0 L274.7 355.7 L315.3 300.8 L410.4 289.0 L467.1 214.7 L600.2 229.8 L664.4 113.3 L649.8 120.3 L632.2 127.2 L628.7 131.1 L651.4 133.0 L658.8 135.2 L667.4 144.2 L657.5 162.5 L641.7 168.2 L650.7 154.6"/><path stroke="#2E9A6E" d="M203.0 358.0 L267.8 361.9 L300.0 309.8 L400.2 314.7 L447.3 238.3 L577.8 232.0 L651.8 142.6 L639.2 139.7 L608.9 119.2 L624.9 140.4 L631.9 138.6 L640.9 113.8 L627.3 124.1 L631.5 120.7 L609.9 150.7 L624.7 145.5"/><path stroke="#26878A" d="M203.0 358.0 L250.8 368.2 L294.2 335.5 L360.2 347.4 L415.0 300.3 L498.5 310.1 L557.6 235.7 L569.9 245.5 L585.7 230.8 L587.6 228.8 L580.5 238.1 L564.8 223.9 L558.5 243.3 L534.2 232.5 L516.4 236.1 L517.3 234.5"/><path stroke="#26878A" d="M203.0 358.0 L243.5 363.3 L269.6 332.5 L323.5 343.8 L364.8 309.9 L436.7 304.2 L484.0 238.5 L503.9 233.9 L484.3 240.1 L498.6 236.9 L493.6 237.9 L504.6 251.5 L528.4 257.7 L550.0 246.0 L560.9 248.5 L569.9 229.9"/><path stroke="#5AA243" d="M203.0 358.0 L281.6 370.8 L343.2 319.5 L452.3 321.2 L531.0 225.1 L693.9 255.8 L791.1 169.8 L763.3 167.3 L757.6 167.3 L751.5 169.0 L737.7 178.3 L745.9 201.1 L746.8 183.5 L764.8 184.2 L787.2 170.6 L803.7 169.7"/><path stroke="#96952B" d="M203.0 358.0 L288.9 376.0 L355.5 316.5 L499.0 333.2 L581.6 254.4 L752.5 272.8 L875.8 185.8 L882.3 177.3 L893.9 174.4 L886.8 169.6 L913.9 145.4 L914.1 130.5 L940.6 126.2 L941.7 116.5 L949.2 120.2 L940.5 133.4"/><path stroke="#5AA243" d="M203.0 358.0 L274.4 360.8 L319.8 309.0 L415.8 320.8 L481.8 243.7 L602.7 271.8 L692.2 200.5 L690.7 190.6 L684.7 177.0 L667.8 185.3 L672.7 183.2 L673.0 167.7 L669.6 158.6 L669.4 152.6 L680.1 157.6 L693.8 154.3"/><path stroke="#2E9A6E" d="M203.0 358.0 L263.1 359.1 L298.9 318.6 L395.2 321.8 L434.3 266.3 L560.1 268.1 L639.8 196.0 L652.5 196.7 L642.0 201.4 L625.4 205.7 L650.7 203.9 L663.1 199.2 L654.8 206.4 L668.0 206.6 L666.8 208.2 L667.9 202.5"/><path stroke="#5AA243" d="M203.0 358.0 L268.2 377.8 L318.9 331.1 L416.4 349.4 L485.1 287.5 L606.1 293.4 L689.7 215.6 L684.0 216.3 L699.7 217.4 L695.7 213.8 L716.5 206.1 L740.8 207.2 L692.7 196.5 L682.8 196.1 L661.2 196.1 L671.8 207.0"/><path stroke="#96952B" d="M203.0 358.0 L292.4 383.3 L375.1 334.6 L527.6 345.8 L618.9 274.9 L789.3 289.9 L929.8 208.1 L929.2 198.0 L962.0 190.1 L970.7 204.1 L956.1 200.6 L955.5 191.9 L949.3 204.9 L944.8 212.4 L933.7 198.6 L930.1 200.1"/><path stroke="#26878A" d="M203.0 358.0 L252.1 363.9 L298.6 339.2 L373.4 351.3 L412.4 305.1 L498.3 333.2 L574.2 265.3 L599.1 269.3 L611.9 253.6 L624.3 256.8 L617.9 278.8 L621.3 284.1 L623.1 294.3 L624.2 277.5 L625.5 255.7 L612.7 264.1"/><path stroke="#2E9A6E" d="M203.0 358.0 L256.2 366.4 L307.2 333.7 L393.2 337.6 L452.0 293.6 L578.3 313.8 L685.0 250.5 L657.5 254.5 L684.9 253.7 L663.1 254.9 L641.1 250.8 L619.3 254.9 L609.2 263.2 L610.7 259.7 L607.1 257.5 L626.8 240.3"/><path stroke="#26878A" d="M203.0 358.0 L253.7 368.3 L304.7 333.1 L386.9 337.6 L431.6 285.8 L533.7 303.5 L634.7 243.3 L625.2 255.0 L602.5 270.3 L583.4 269.9 L572.5 263.5 L587.7 267.6 L573.5 272.8 L568.8 261.6 L577.8 259.7 L559.7 270.0"/><path stroke="#26878A" d="M203.0 358.0 L242.8 371.6 L279.9 349.1 L347.0 356.1 L406.5 316.3 L484.1 329.4 L557.8 291.4 L565.2 309.1 L566.4 304.0 L553.9 299.1 L564.6 285.6 L554.2 275.7 L558.7 276.7 L552.9 284.1 L538.2 294.6 L537.0 289.2"/><path stroke="#2E9A6E" d="M203.0 358.0 L269.0 370.7 L332.0 338.0 L407.3 364.0 L485.4 293.6 L610.8 307.5 L710.1 255.2 L739.4 261.8 L752.9 265.3 L775.5 248.3 L772.2 238.4 L802.1 212.0 L822.4 211.1 L841.3 218.6 L857.0 220.2 L871.5 216.0"/><path stroke="#96952B" d="M203.0 358.0 L284.9 378.3 L380.8 333.7 L519.6 365.1 L622.4 288.1 L774.1 331.2 L914.7 271.4 L917.4 267.5 L908.0 260.3 L887.0 264.7 L880.1 254.8 L899.9 248.9 L903.6 241.1 L908.0 259.8 L892.7 262.0 L885.7 269.4"/><path stroke="#96952B" d="M203.0 358.0 L291.0 365.8 L376.4 310.3 L496.3 322.4 L608.3 241.1 L766.3 288.1 L883.0 208.8 L876.5 223.2 L869.2 207.9 L867.6 209.3 L879.7 206.4 L890.8 208.2 L891.9 198.9 L889.9 194.2 L885.0 203.6 L906.7 196.8"/><path stroke="#2E9A6E" d="M203.0 358.0 L257.5 380.6 L315.3 350.3 L391.8 383.9 L460.8 329.5 L568.9 378.8 L695.9 306.6 L710.8 309.5 L705.1 311.1 L694.7 306.8 L684.3 320.7 L677.9 320.9 L675.2 321.0 L681.9 305.5 L696.6 326.5 L721.1 324.6"/><path stroke="#2E9A6E" d="M203.0 358.0 L258.3 365.8 L320.6 342.6 L389.6 358.6 L453.8 311.7 L540.5 336.2 L634.8 294.2 L648.2 309.7 L647.0 301.7 L630.8 303.9 L627.9 293.2 L600.3 309.9 L590.0 297.2 L577.7 297.1 L590.4 295.5 L580.6 305.8"/><path stroke="#B4552A" d="M203.0 358.0 L308.3 382.5 L411.8 322.9 L555.8 363.6 L710.8 303.5 L866.2 356.6 L1009.2 265.6 L1026.6 273.8 L1063.4 248.0 L1097.7 247.9 L1104.8 261.6 L1108.9 279.6 L1114.8 286.1 L1122.2 276.0 L1117.7 276.9 L1125.3 254.9"/><path stroke="#5AA243" d="M203.0 358.0 L260.3 383.3 L321.8 351.2 L404.2 377.4 L514.7 333.2 L655.1 383.4 L805.2 312.8 L837.4 314.2 L825.7 312.0 L822.4 307.2 L857.1 280.0 L848.4 297.0 L846.7 291.6 L848.7 304.2 L860.9 302.1 L827.2 281.9"/><path stroke="#5AA243" d="M203.0 358.0 L263.2 382.1 L319.9 344.6 L414.1 372.5 L490.1 321.1 L603.2 355.2 L750.1 275.3 L750.8 264.7 L742.8 263.0 L727.1 257.0 L781.8 256.8 L766.2 273.5 L766.8 281.9 L771.6 292.0 L789.1 271.5 L793.9 273.1"/><path stroke="#2E9A6E" d="M203.0 358.0 L260.7 382.5 L329.6 355.9 L412.4 371.6 L501.2 329.9 L600.9 382.8 L685.5 316.9 L697.0 306.2 L674.0 314.0 L707.5 303.8 L701.7 301.3 L723.2 278.7 L726.2 256.6 L739.8 228.3 L749.9 212.0 L748.4 212.2"/><path stroke="#96952B" d="M203.0 358.0 L275.1 396.0 L349.8 341.1 L469.0 366.6 L610.2 295.5 L772.8 368.9 L959.5 275.5 L940.0 275.1 L932.8 268.9 L939.0 271.8 L931.5 271.6 L931.1 267.8 L889.1 254.2 L874.4 262.5 L881.5 270.3 L898.2 259.6"/><path stroke="#2E9A6E" d="M203.0 358.0 L247.1 379.8 L299.7 357.9 L382.6 384.1 L460.3 351.6 L550.8 378.0 L658.4 327.1 L669.9 314.3 L669.3 306.9 L690.4 302.4 L711.9 292.6 L716.7 311.6 L742.2 331.3 L758.3 341.7 L754.9 325.6 L747.1 301.9"/><path stroke="#26878A" d="M203.0 358.0 L245.3 376.8 L287.0 351.4 L350.1 368.2 L414.4 322.7 L494.4 355.9 L603.5 311.5 L618.1 293.9 L607.0 302.1 L597.7 290.9 L580.7 270.6 L593.3 277.7 L597.6 273.0 L590.9 268.4 L580.1 259.2 L590.7 247.4"/><path stroke="#5AA243" d="M203.0 358.0 L270.0 376.2 L346.2 338.3 L429.8 376.2 L538.2 341.8 L675.1 392.7 L784.6 332.7 L782.0 339.5 L785.6 348.5 L795.8 345.4 L776.2 338.2 L771.3 355.2 L757.7 347.6 L737.0 356.8 L723.5 352.8 L745.5 355.4"/><path stroke="#2B3A67" d="M203.0 358.0 L207.2 354.7 L202.4 350.1 L205.8 345.2 L201.5 338.5 L206.7 332.2 L198.3 325.5 L203.7 327.6 L209.6 323.8 L194.4 309.9 L203.2 328.9 L214.1 333.7 L198.1 333.6 L222.5 340.5 L195.2 341.2 L187.5 341.0"/><path stroke="#2B3A67" d="M203.0 358.0 L204.2 355.1 L200.9 352.4 L204.0 348.0 L199.1 343.6 L200.9 338.5 L194.2 333.5 L196.1 326.3 L206.6 332.3 L185.7 340.3 L184.0 341.7 L176.2 329.4 L156.2 323.1 L134.2 346.3 L105.5 340.0 L107.6 344.8"/><path stroke="#2B3A67" d="M203.0 358.0 L204.0 353.7 L197.4 350.5 L201.4 345.2 L190.4 340.9 L192.0 331.3 L178.4 324.6 L189.8 324.6 L180.0 342.1 L179.4 325.2 L153.8 317.7 L138.7 304.8 L137.3 289.0 L131.7 282.6 L138.1 291.4 L158.0 288.6"/><path stroke="#2B3A67" d="M203.0 358.0 L203.7 352.9 L194.8 349.3 L198.2 342.4 L188.3 338.4 L187.6 328.2 L173.0 323.4 L159.6 319.1 L142.1 334.5 L126.4 336.7 L124.3 330.0 L147.0 348.6 L146.5 369.3 L148.8 369.8 L178.3 366.6 L166.3 388.0"/><path stroke="#2B3A67" d="M203.0 358.0 L205.5 350.8 L194.2 346.9 L192.8 337.4 L173.2 334.1 L170.2 320.1 L150.0 310.5 L166.9 292.1 L194.2 307.3 L190.0 285.0 L180.2 303.3 L166.5 288.0 L147.6 294.2 L139.7 291.8 L148.9 290.2 L161.9 306.4"/><path stroke="#2C5480" d="M203.0 358.0 L203.2 345.5 L180.4 343.2 L173.1 323.3 L137.0 315.9 L133.5 286.7 L97.3 275.8 L86.0 273.3 L78.1 284.2 L112.6 258.8 L101.3 256.4 L107.6 247.3 L107.7 248.3 L122.2 255.8 L101.8 244.1 L117.6 246.0"/><path stroke="#2C5480" d="M203.0 358.0 L200.8 346.1 L181.1 342.7 L181.2 325.7 L150.1 319.3 L139.5 299.5 L92.8 297.6 L100.1 289.9 L128.2 288.1 L117.6 290.0 L113.7 298.0 L96.2 290.0 L82.1 300.9 L73.5 298.1 L74.5 315.6 L65.1 326.1"/><path stroke="#2A6E8C" d="M203.0 358.0 L195.1 339.6 L164.8 332.9 L145.2 309.8 L98.2 299.0 L91.7 266.4 L34.6 250.4 L35.3 242.6 L50.6 237.5 L64.2 244.9 L80.8 248.3 L58.4 246.8 L60.5 251.5 L37.0 247.9 L34.9 244.4 L55.5 241.7"/></g></svg>